<?xml version="1.0" standalone="no"?><!DOCTYPE svg PUBLIC "-//W3C//DTD SVG 1.1//EN" "http://www.w3.org/Graphics/SVG/1.1/DTD/svg11.dtd"><svg t="1682325791378" class="icon" viewBox="0 0 1024 1024" version="1.1" xmlns="http://www.w3.org/2000/svg" p-id="4160" width="200" height="200" xmlns:xlink="http://www.w3.org/1999/xlink"><path d="M354.1 710c0.7 0 1.4 0 2.1-0.1 7.3 0 14.4-2.1 20.5-6.1l0.1-0.1c5.4-3.9 10-8.8 13.5-14.6 3.5-5.7 6.4-11.2 8.7-16.3l0.1-0.2c1.3-3.2 2.8-6.7 4.4-10.4 0.8-1.9 1.7-3.9 2.6-6l23.9-60.1h156.8l32.8 82.4c2.6 8.5 7.4 16.1 14.1 22 7.1 6.3 16.1 9.6 25.5 9.4h1.9c21.3 0 30.4-9.6 34.4-17.6 4.9-9.7 4.8-21.4-0.3-35l-140-367.9c-3.2-9.1-9.4-17-17.4-22.3l-0.2-0.1c-8.9-5.2-19-7.8-29.4-7.5-10.5-0.3-20.7 2.5-29.5 8.2l-0.1 0.1c-7.9 5.3-13.7 12.9-16.9 21.7L322.4 655.8c-8.9 23.4-3.4 36 2.8 42.4l0.1 0.1c7.7 7.5 18.1 11.7 28.8 11.7z m99.2-183.5l55.6-151.6 55.5 151.6H453.3z" p-id="4161" fill="#b6b7b9"></path><path d="M935.7 366.7c-16.3-47.2-40.2-91-71.1-130.2l-0.3-0.3c-0.5-0.5-1-1.2-1.6-2-0.6-0.9-1.3-1.9-2.2-2.8-84.7-106-211-166.9-346.6-167.4l-0.1-0.1h-11.7c-73.4 2-145.9 22.1-209.8 58.3l-18.4-31.9-0.1-0.2c-2.9-4.3-7.2-6.7-11.7-6.7h-2c-5.7 0.7-10.3 4.8-11.8 10.4L223 189.3c0 0.2-0.1 0.3-0.1 0.5-0.8 3.5-0.3 7.2 1.6 10.2 1.9 3.1 4.9 5.3 8.3 6.1l96 25.5h0.4c0.5 0.2 1.4 0.5 2.7 0.5 4.3-0.1 8.3-2.1 10.9-5.4 3.5-4.2 3.8-10.4 0.9-15.5l-18.9-32.4c56.3-31.9 120.4-48.7 185.7-48.7 71.1 0.1 140.6 20 200.9 57.6 60.3 37.6 108.9 91.2 140.3 155 27.4 53.5 41.4 111.4 41.4 172.2 0 64.8-14.6 124.5-43.4 177.6l-0.1 0.1c-0.6 1.1-1.2 3-1.4 4.6l-0.3 1.2c-0.5 1.8-1.2 4.1-1.2 6.9 0.1 18.3 15 33.2 33.4 33.2 13.6 0 25.8-8.6 30.4-21.3 31.8-64 48.5-130.4 49.5-197.2v-7c0.2-49.9-8-99.1-24.3-146.3zM791.9 818l-95.6-25.3-0.5-0.1h-0.4c-0.1 0-0.1 0-0.2-0.1-0.5-0.2-1.3-0.4-2.5-0.4-4.3 0.1-8.3 2-10.9 5.3-3.5 4.2-3.9 10.4-0.9 15.5l18.9 32.4C643.6 877.2 579.5 894 514.3 894c-71.1-0.1-140.6-20-201-57.6-60.4-37.6-108.9-91.2-140.3-155-27.4-53.5-41.3-111.4-41.3-172.2 0-64.8 14.6-124.5 43.4-177.6l0.1-0.1c0.7-1.4 1.2-2.9 1.3-4.5l0.3-0.9c0.6-1.9 1.3-4.4 1.3-7.3v-0.1c-0.6-17.7-15.7-32.2-33.8-32.2-13.6 0-25.8 8.6-30.4 21.3C81.7 371.9 65 438.3 64 505.1v7c-0.2 49.9 8 99.1 24.3 146.3 16.3 47.2 40.2 90.9 71.1 130.1l0.2 0.3c0.5 0.6 1 1.3 1.6 2 0.6 0.9 1.4 1.9 2.3 2.9 41.7 51.7 95.4 94.1 155.4 122.8 59.8 28.5 126.4 43.6 192.7 43.6h10.7c73.4-1.9 145.9-22 209.8-58.2l18.5 31.9c2.5 4.2 6.9 6.8 11.8 6.9h2.1c5.7-0.7 10.3-4.8 11.8-10.4l25.3-95.4c0-0.1 0.1-0.3 0.1-0.4 0.9-3.5 0.3-7.2-1.5-10.3-1.9-3.2-4.9-5.4-8.3-6.2z" p-id="4162" fill="#b6b7b9"></path></svg>